<?xml version="1.0" encoding="iso-8859-1"?>
<!-- Uploaded to: SVG Repo, www.svgrepo.com, Generator: SVG Repo Mixer Tools -->
<svg height="800px" width="800px" version="1.1" id="Layer_1" xmlns="http://www.w3.org/2000/svg" xmlns:xlink="http://www.w3.org/1999/xlink" 
	 viewBox="0 0 512 512" xml:space="preserve">
<path style="fill:#DBE1F1;" d="M456.348,445.217H55.652c-9.217,0-16.696-7.473-16.696-16.696V217.043C38.957,97.365,136.326,0,256,0
	s217.043,97.365,217.043,217.043v211.478C473.043,437.744,465.565,445.217,456.348,445.217z"/>
<path style="fill:#D0D5E5;" d="M456.348,445.217c9.217,0,16.696-7.473,16.696-16.696V217.043C473.043,97.365,375.674,0,256,0
	v445.217H456.348z"/>
<path style="fill:#FFFFFF;" d="M344.487,115.645c-5.231,7.679-15.581,9.683-23.151,4.452
	c-19.367-13.023-42.406-19.478-65.336-19.478s-45.969,6.456-65.336,19.478c-7.57,5.231-17.92,3.228-23.151-4.452
	c-5.12-7.57-3.117-18.032,4.562-23.151C196.896,75.687,225.948,66.783,256,66.783s59.104,8.904,83.923,25.711
	C347.603,97.614,349.606,108.077,344.487,115.645z"/>
<path style="fill:#7CCC92;" d="M389.565,166.957h-66.783c-27.27,0-51.534,13.245-66.783,33.614
	c-15.249-20.369-39.513-33.614-66.783-33.614h-66.783c-9.239,0-16.696,7.457-16.696,16.696v66.783
	c0,46.08,37.398,83.478,83.478,83.478h133.565c46.08,0,83.478-37.398,83.478-83.478v-66.783
	C406.261,174.414,398.805,166.957,389.565,166.957z"/>
<path style="fill:#34B772;" d="M406.261,183.652v66.783c0,46.08-37.398,83.478-83.478,83.478H256V200.57
	c15.249-20.369,39.513-33.614,66.783-33.614h66.783C398.805,166.957,406.261,174.414,406.261,183.652z"/>
<path style="fill:#DDDD47;" d="M334.582,262.233l-61.886,61.885v98.838c0,9.238-7.456,16.696-16.696,16.696
	s-16.696-7.457-16.696-16.696v-98.838l-61.886-61.885c-6.567-6.456-6.567-17.141,0-23.597c6.568-6.567,17.03-6.567,23.598,0
	L256,293.621l54.983-54.984c6.568-6.567,17.03-6.567,23.598,0C341.148,245.092,341.148,255.777,334.582,262.233z"/>
<path style="fill:#C7D100;" d="M334.582,262.233l-61.886,61.885v98.838c0,9.238-7.456,16.696-16.696,16.696V293.621l54.983-54.984
	c6.568-6.567,17.03-6.567,23.598,0C341.148,245.092,341.148,255.777,334.582,262.233z"/>
<path style="fill:#E7ECFD;" d="M344.487,115.645c-5.231,7.679-15.581,9.683-23.151,4.452
	c-19.367-13.023-42.406-19.478-65.336-19.478V66.783c30.052,0,59.104,8.904,83.923,25.711
	C347.603,97.614,349.606,108.077,344.487,115.645z"/>
<path style="fill:#79695A;" d="M495.304,512H16.696C7.479,512,0,504.527,0,495.304v-33.391c0-27.619,22.468-50.087,50.087-50.087
	h411.826c27.619,0,50.087,22.468,50.087,50.087v33.391C512,504.527,504.521,512,495.304,512z"/>
<path style="fill:#6C5B52;" d="M461.913,411.826H256V512h239.304c9.217,0,16.696-7.473,16.696-16.696v-33.391
	C512,434.294,489.532,411.826,461.913,411.826z"/>
</svg>